<svg width="240" height="60" viewBox="0 0 240 60" fill="none" xmlns="http://www.w3.org/2000/svg">
<g clip-path="url(#clip0_1_3)">
<rect x="5" y="49" width="64" height="4" fill="black"/>
<rect x="88" y="49" width="64" height="4" fill="#FE0000"/>
<rect x="171" y="49" width="64" height="4" fill="#FDCD00"/>
<path d="M2.86432 39V8.088H17.0723C20.5283 8.088 23.0403 8.984 24.6083 10.776C26.2083 12.536 27.0083 14.936 27.0083 17.976C27.0083 20.152 26.4643 22.008 25.3763 23.544C24.2883 25.08 22.7203 26.152 20.6723 26.76C21.2483 27.176 21.6963 27.624 22.0163 28.104C22.3363 28.584 22.6563 29.224 22.9763 30.024L26.8643 39H21.4883L17.6963 30.36C17.3443 29.528 16.9123 28.936 16.4003 28.584C15.9203 28.232 15.0883 28.056 13.9043 28.056H8.09632V39H2.86432ZM8.09632 23.832H15.6803C17.5683 23.832 19.0563 23.368 20.1443 22.44C21.2323 21.512 21.7763 20.024 21.7763 17.976C21.7763 14.104 19.9043 12.168 16.1603 12.168H8.09632V23.832ZM29.2812 39V8.088H50.8332V12.168H34.5132V21.528H49.0572V25.56H34.5132V34.968H50.8332V39H29.2812ZM52.7918 39V8.088H66.5678C68.9358 8.088 70.8878 8.536 72.4238 9.432C73.9598 10.328 75.0958 11.56 75.8318 13.128C76.5678 14.664 76.9358 16.424 76.9358 18.408C76.9358 21.48 75.9758 23.944 74.0558 25.8C72.1678 27.656 69.6078 28.584 66.3758 28.584H58.0238V39H52.7918ZM58.0238 24.456H65.4158C67.4958 24.456 69.0638 23.912 70.1198 22.824C71.1758 21.736 71.7038 20.264 71.7038 18.408C71.7038 16.424 71.1918 14.888 70.1678 13.8C69.1758 12.712 67.6718 12.168 65.6558 12.168H58.0238V24.456ZM73.4686 39L85.2766 8.088H91.1326L102.845 39H97.4686L94.3966 31.032H81.9646L78.8926 39H73.4686ZM82.7806 27H93.5326L88.1566 12.84L82.7806 27ZM105.11 39V8.088H119.318C122.774 8.088 125.286 8.984 126.854 10.776C128.454 12.536 129.254 14.936 129.254 17.976C129.254 20.152 128.71 22.008 127.622 23.544C126.534 25.08 124.966 26.152 122.918 26.76C123.494 27.176 123.942 27.624 124.262 28.104C124.582 28.584 124.902 29.224 125.222 30.024L129.11 39H123.734L119.942 30.36C119.59 29.528 119.158 28.936 118.646 28.584C118.166 28.232 117.334 28.056 116.15 28.056H110.342V39H105.11ZM110.342 23.832H117.926C119.814 23.832 121.302 23.368 122.39 22.44C123.478 21.512 124.022 20.024 124.022 17.976C124.022 14.104 122.15 12.168 118.406 12.168H110.342V23.832ZM128.459 39L140.267 8.088H146.123L157.835 39H152.459L149.387 31.032H136.955L133.883 39H128.459ZM137.771 27H148.523L143.147 12.84L137.771 27ZM164.038 39V12.168H154.15V8.088H179.11V12.168H169.27V39H164.038ZM193.623 39.48C189.367 39.48 186.055 38.456 183.687 36.408C181.351 34.36 180.183 31.4 180.183 27.528V8.088H185.415V27.336C185.415 29.928 186.119 31.864 187.527 33.144C188.967 34.424 190.999 35.064 193.623 35.064C196.215 35.064 198.215 34.424 199.623 33.144C201.063 31.864 201.783 29.928 201.783 27.336V8.088H206.967V27.528C206.967 31.4 205.799 34.36 203.463 36.408C201.127 38.456 197.847 39.48 193.623 39.48ZM209.887 39V8.088H224.095C227.551 8.088 230.063 8.984 231.631 10.776C233.231 12.536 234.031 14.936 234.031 17.976C234.031 20.152 233.487 22.008 232.399 23.544C231.311 25.08 229.743 26.152 227.695 26.76C228.271 27.176 228.719 27.624 229.039 28.104C229.359 28.584 229.679 29.224 229.999 30.024L233.887 39H228.511L224.719 30.36C224.367 29.528 223.935 28.936 223.423 28.584C222.943 28.232 222.111 28.056 220.927 28.056H215.119V39H209.887ZM215.119 23.832H222.703C224.591 23.832 226.079 23.368 227.167 22.44C228.255 21.512 228.799 20.024 228.799 17.976C228.799 14.104 226.927 12.168 223.183 12.168H215.119V23.832Z" fill="black"/>
</g>
<defs>
<clipPath id="clip0_1_3">
<rect width="240" height="60" fill="white"/>
</clipPath>
</defs>
</svg>
