<svg width="120" height="30" viewBox="0 0 120 30" fill="none" xmlns="http://www.w3.org/2000/svg">
<g clip-path="url(#clip0_1_4)">
<rect x="2" y="25" width="32" height="3" fill="black"/>
<rect x="44" y="25" width="32" height="3" fill="#FE0000"/>
<rect x="86" y="25" width="32" height="3" fill="#FDCD00"/>
<path d="M2.43216 21V5.544H9.53616C11.2642 5.544 12.5202 5.992 13.3042 6.888C14.1042 7.768 14.5042 8.968 14.5042 10.488C14.5042 11.576 14.2322 12.504 13.6882 13.272C13.1442 14.04 12.3602 14.576 11.3362 14.88C11.6242 15.088 11.8482 15.312 12.0082 15.552C12.1682 15.792 12.3282 16.112 12.4882 16.512L14.4322 21H11.7442L9.84816 16.68C9.67216 16.264 9.45616 15.968 9.20016 15.792C8.96016 15.616 8.54416 15.528 7.95216 15.528H5.04816V21H2.43216ZM5.04816 13.416H8.84016C9.78416 13.416 10.5282 13.184 11.0722 12.72C11.6162 12.256 11.8882 11.512 11.8882 10.488C11.8882 8.552 10.9522 7.584 9.08016 7.584H5.04816V13.416ZM15.6406 21V5.544H26.4166V7.584H18.2566V12.264H25.5286V14.28H18.2566V18.984H26.4166V21H15.6406ZM27.3959 21V5.544H34.2839C35.4679 5.544 36.4439 5.768 37.2119 6.216C37.9799 6.664 38.5479 7.28 38.9159 8.064C39.2839 8.832 39.4679 9.712 39.4679 10.704C39.4679 12.24 38.9879 13.472 38.0279 14.4C37.0839 15.328 35.8039 15.792 34.1879 15.792H30.0119V21H27.3959ZM30.0119 13.728H33.7079C34.7479 13.728 35.5319 13.456 36.0599 12.912C36.5879 12.368 36.8519 11.632 36.8519 10.704C36.8519 9.712 36.5959 8.944 36.0839 8.4C35.5879 7.856 34.8359 7.584 33.8279 7.584H30.0119V13.728ZM37.7343 21L43.6383 5.544H46.5663L52.4223 21H49.7343L48.1983 17.016H41.9823L40.4463 21H37.7343ZM42.3903 15H47.7663L45.0783 7.92L42.3903 15ZM53.555 21V5.544H60.659C62.387 5.544 63.643 5.992 64.427 6.888C65.227 7.768 65.627 8.968 65.627 10.488C65.627 11.576 65.355 12.504 64.811 13.272C64.267 14.04 63.483 14.576 62.459 14.88C62.747 15.088 62.971 15.312 63.131 15.552C63.291 15.792 63.451 16.112 63.611 16.512L65.555 21H62.867L60.971 16.68C60.795 16.264 60.579 15.968 60.323 15.792C60.083 15.616 59.667 15.528 59.075 15.528H56.171V21H53.555ZM56.171 13.416H59.963C60.907 13.416 61.651 13.184 62.195 12.72C62.739 12.256 63.011 11.512 63.011 10.488C63.011 8.552 62.075 7.584 60.203 7.584H56.171V13.416ZM65.2293 21L71.1333 5.544H74.0613L79.9173 21H77.2293L75.6933 17.016H69.4773L67.9413 21H65.2293ZM69.8853 15H75.2613L72.5733 7.92L69.8853 15ZM83.0189 21V7.584H78.0749V5.544H90.5549V7.584H85.6349V21H83.0189ZM97.8115 21.24C95.6835 21.24 94.0275 20.728 92.8435 19.704C91.6755 18.68 91.0915 17.2 91.0915 15.264V5.544H93.7075V15.168C93.7075 16.464 94.0595 17.432 94.7635 18.072C95.4835 18.712 96.4995 19.032 97.8115 19.032C99.1075 19.032 100.108 18.712 100.812 18.072C101.532 17.432 101.892 16.464 101.892 15.168V5.544H104.484V15.264C104.484 17.2 103.9 18.68 102.732 19.704C101.564 20.728 99.9235 21.24 97.8115 21.24ZM105.943 21V5.544H113.047C114.775 5.544 116.031 5.992 116.815 6.888C117.615 7.768 118.015 8.968 118.015 10.488C118.015 11.576 117.743 12.504 117.199 13.272C116.655 14.04 115.871 14.576 114.847 14.88C115.135 15.088 115.359 15.312 115.519 15.552C115.679 15.792 115.839 16.112 115.999 16.512L117.943 21H115.255L113.359 16.68C113.183 16.264 112.967 15.968 112.711 15.792C112.471 15.616 112.055 15.528 111.463 15.528H108.559V21H105.943ZM108.559 13.416H112.351C113.295 13.416 114.039 13.184 114.583 12.72C115.127 12.256 115.399 11.512 115.399 10.488C115.399 8.552 114.463 7.584 112.591 7.584H108.559V13.416Z" fill="black"/>
</g>
<defs>
<clipPath id="clip0_1_4">
<rect width="120" height="30" fill="white"/>
</clipPath>
</defs>
</svg>
