<svg width="320" height="80" viewBox="0 0 320 80" fill="none" xmlns="http://www.w3.org/2000/svg">
<g clip-path="url(#clip0_1_2)">
<rect x="4" y="64" width="92" height="5" fill="black"/>
<rect x="113" y="64" width="92" height="5" fill="#FE0000"/>
<rect x="220" y="64" width="92" height="5" fill="#FDCD00"/>
<path d="M4.48575 53V11.784H23.4298C28.0378 11.784 31.3871 12.9787 33.4778 15.368C35.6111 17.7147 36.6778 20.9147 36.6778 24.968C36.6778 27.8693 35.9524 30.344 34.5018 32.392C33.0511 34.44 30.9604 35.8693 28.2298 36.68C28.9978 37.2347 29.5951 37.832 30.0218 38.472C30.4484 39.112 30.8751 39.9653 31.3018 41.032L36.4858 53H29.3178L24.2618 41.48C23.7924 40.3707 23.2164 39.5813 22.5338 39.112C21.8938 38.6427 20.7844 38.408 19.2058 38.408H11.4618V53H4.48575ZM11.4618 32.776H21.5738C24.0911 32.776 26.0751 32.1573 27.5258 30.92C28.9764 29.6827 29.7018 27.6987 29.7018 24.968C29.7018 19.8053 27.2058 17.224 22.2138 17.224H11.4618V32.776ZM39.7083 53V11.784H68.4443V17.224H46.6843V29.704H66.0763V35.08H46.6843V47.624H68.4443V53H39.7083ZM71.0558 53V11.784H89.4238C92.5811 11.784 95.1838 12.3813 97.2318 13.576C99.2798 14.7707 100.794 16.4133 101.776 18.504C102.757 20.552 103.248 22.8987 103.248 25.544C103.248 29.64 101.968 32.9253 99.4078 35.4C96.8904 37.8747 93.4771 39.112 89.1678 39.112H78.0318V53H71.0558ZM78.0318 33.608H87.8878C90.6611 33.608 92.7518 32.8827 94.1598 31.432C95.5678 29.9813 96.2718 28.0187 96.2718 25.544C96.2718 22.8987 95.5891 20.8507 94.2238 19.4C92.9011 17.9493 90.8958 17.224 88.2078 17.224H78.0318V33.608ZM98.6248 53L114.369 11.784H122.177L137.793 53H130.625L126.529 42.376H109.953L105.857 53H98.6248ZM111.041 37H125.377L118.209 18.12L111.041 37ZM140.813 53V11.784H159.757C164.365 11.784 167.715 12.9787 169.805 15.368C171.939 17.7147 173.005 20.9147 173.005 24.968C173.005 27.8693 172.28 30.344 170.829 32.392C169.379 34.44 167.288 35.8693 164.557 36.68C165.325 37.2347 165.923 37.832 166.349 38.472C166.776 39.112 167.203 39.9653 167.629 41.032L172.813 53H165.645L160.589 41.48C160.12 40.3707 159.544 39.5813 158.861 39.112C158.221 38.6427 157.112 38.408 155.533 38.408H147.789V53H140.813ZM147.789 32.776H157.901C160.419 32.776 162.403 32.1573 163.853 30.92C165.304 29.6827 166.029 27.6987 166.029 24.968C166.029 19.8053 163.533 17.224 158.541 17.224H147.789V32.776ZM171.945 53L187.689 11.784H195.497L211.113 53H203.945L199.849 42.376H183.273L179.177 53H171.945ZM184.361 37H198.697L191.529 18.12L184.361 37ZM219.384 53V17.224H206.2V11.784H239.48V17.224H226.36V53H219.384ZM258.831 53.64C253.156 53.64 248.74 52.2747 245.583 49.544C242.468 46.8133 240.911 42.8667 240.911 37.704V11.784H247.887V37.448C247.887 40.904 248.825 43.4853 250.703 45.192C252.623 46.8987 255.332 47.752 258.831 47.752C262.287 47.752 264.953 46.8987 266.831 45.192C268.751 43.4853 269.711 40.904 269.711 37.448V11.784H276.623V37.704C276.623 42.8667 275.065 46.8133 271.951 49.544C268.836 52.2747 264.463 53.64 258.831 53.64ZM280.516 53V11.784H299.46C304.068 11.784 307.417 12.9787 309.508 15.368C311.641 17.7147 312.708 20.9147 312.708 24.968C312.708 27.8693 311.982 30.344 310.532 32.392C309.081 34.44 306.99 35.8693 304.26 36.68C305.028 37.2347 305.625 37.832 306.052 38.472C306.478 39.112 306.905 39.9653 307.332 41.032L312.516 53H305.348L300.292 41.48C299.822 40.3707 299.246 39.5813 298.564 39.112C297.924 38.6427 296.814 38.408 295.236 38.408H287.492V53H280.516ZM287.492 32.776H297.604C300.121 32.776 302.105 32.1573 303.556 30.92C305.006 29.6827 305.732 27.6987 305.732 24.968C305.732 19.8053 303.236 17.224 298.244 17.224H287.492V32.776Z" fill="black"/>
</g>
<defs>
<clipPath id="clip0_1_2">
<rect width="320" height="80" fill="white"/>
</clipPath>
</defs>
</svg>
